<?xml version="1.0" encoding="UTF-8"?>
<!DOCTYPE svg PUBLIC "-//W3C//DTD SVG 1.1//EN" "http://www.w3.org/Graphics/SVG/1.1/DTD/svg11.dtd">
<svg xmlns="http://www.w3.org/2000/svg" version="1.1" width="58px" height="52px" style="shape-rendering:geometricPrecision; text-rendering:geometricPrecision; image-rendering:optimizeQuality; fill-rule:evenodd; clip-rule:evenodd" xmlns:xlink="http://www.w3.org/1999/xlink">
<g><path style="opacity:1" fill="#d1aea8" d="M -0.5,-0.5 C 18.8333,-0.5 38.1667,-0.5 57.5,-0.5C 57.5,16.8333 57.5,34.1667 57.5,51.5C 38.1667,51.5 18.8333,51.5 -0.5,51.5C -0.5,34.1667 -0.5,16.8333 -0.5,-0.5 Z"/></g>
<g><path style="opacity:1" fill="#967169" d="M 44.5,22.5 C 43.8333,22.5 43.5,22.1667 43.5,21.5C 43.5,21.1667 43.5,20.8333 43.5,20.5C 43.9382,20.5654 44.2716,20.3988 44.5,20C 39.9788,15.9777 35.3121,12.1444 30.5,8.5C 26.148,11.8574 21.8147,15.1907 17.5,18.5C 16.596,19.209 16.2627,20.209 16.5,21.5C 18.4832,21.1568 19.8166,21.8235 20.5,23.5C 20.5,27.8333 20.5,32.1667 20.5,36.5C 22.1667,36.5 23.8333,36.5 25.5,36.5C 24.6404,31.9047 26.3071,28.9047 30.5,27.5C 34.9171,28.8545 36.5837,31.8545 35.5,36.5C 37.1667,36.5 38.8333,36.5 40.5,36.5C 41.1667,36.5 41.5,36.8333 41.5,37.5C 34.5495,38.5931 27.5495,38.7598 20.5,38C 20,37.5 19.5,37 19,36.5C 18.5008,31.8452 18.3342,27.1785 18.5,22.5C 15.3198,22.8238 14.1531,21.4904 15,18.5C 19.7674,14.206 24.934,10.5393 30.5,7.5C 35.4202,10.4112 40.0869,13.7445 44.5,17.5C 45.7879,19.2985 45.7879,20.9652 44.5,22.5 Z"/></g>
<g><path style="opacity:1" fill="#d3aea7" d="M 43.5,20.5 C 34.79,20.4408 26.29,20.4408 18,20.5C 17.5357,19.9056 17.369,19.2389 17.5,18.5C 21.8147,15.1907 26.148,11.8574 30.5,8.5C 35.3121,12.1444 39.9788,15.9777 44.5,20C 44.2716,20.3988 43.9382,20.5654 43.5,20.5 Z"/></g>
<g><path style="opacity:1" fill="#9e7972" d="M 43.5,21.5 C 43.5,22.1667 43.8333,22.5 44.5,22.5C 42.9442,27.3913 41.9442,32.3913 41.5,37.5C 41.5,36.8333 41.1667,36.5 40.5,36.5C 40.5,32.1667 40.5,27.8333 40.5,23.5C 34.3466,22.6721 28.0133,22.1721 21.5,22C 28.8258,21.5003 36.1591,21.3337 43.5,21.5 Z"/></g>
<g><path style="opacity:1" fill="#bb978f" d="M 17.5,18.5 C 17.369,19.2389 17.5357,19.9056 18,20.5C 26.29,20.4408 34.79,20.4408 43.5,20.5C 43.5,20.8333 43.5,21.1667 43.5,21.5C 36.1591,21.3337 28.8258,21.5003 21.5,22C 28.0133,22.1721 34.3466,22.6721 40.5,23.5C 33.8333,23.5 27.1667,23.5 20.5,23.5C 19.8166,21.8235 18.4832,21.1568 16.5,21.5C 16.2627,20.209 16.596,19.209 17.5,18.5 Z"/></g>
<g><path style="opacity:1" fill="#d2aea6" d="M 20.5,23.5 C 27.1667,23.5 33.8333,23.5 40.5,23.5C 40.5,27.8333 40.5,32.1667 40.5,36.5C 38.8333,36.5 37.1667,36.5 35.5,36.5C 36.5837,31.8545 34.9171,28.8545 30.5,27.5C 26.3071,28.9047 24.6404,31.9047 25.5,36.5C 23.8333,36.5 22.1667,36.5 20.5,36.5C 20.5,32.1667 20.5,27.8333 20.5,23.5 Z"/></g>
<g><path style="opacity:1" fill="#d1aca4" d="M 28.5,29.5 C 32.8004,29.8153 34.467,32.1486 33.5,36.5C 31.5,36.5 29.5,36.5 27.5,36.5C 27.298,34.0504 27.6314,31.717 28.5,29.5 Z"/></g>
</svg>
