<?xml version="1.0" encoding="UTF-8"?>
<!DOCTYPE svg PUBLIC "-//W3C//DTD SVG 1.1//EN" "http://www.w3.org/Graphics/SVG/1.1/DTD/svg11.dtd">
<svg xmlns="http://www.w3.org/2000/svg" version="1.1" width="24px" height="24px" style="shape-rendering:geometricPrecision; text-rendering:geometricPrecision; image-rendering:optimizeQuality; fill-rule:evenodd; clip-rule:evenodd" xmlns:xlink="http://www.w3.org/1999/xlink">
<g><path style="opacity:1" fill="#7a5143" d="M 2.5,1.5 C 6.83333,1.5 11.1667,1.5 15.5,1.5C 15.762,2.97782 15.4287,4.31116 14.5,5.5C 11.4439,3.71076 8.11056,3.04409 4.5,3.5C 4.5,8.83333 4.5,14.1667 4.5,19.5C 8.11056,19.9559 11.4439,19.2892 14.5,17.5C 15.4287,18.6888 15.762,20.0222 15.5,21.5C 11.1667,21.5 6.83333,21.5 2.5,21.5C 2.5,14.8333 2.5,8.16667 2.5,1.5 Z"/></g>
<g><path style="opacity:1" fill="#764e41" d="M 15.5,6.5 C 17.4788,7.81212 19.1455,9.47878 20.5,11.5C 19.1851,13.3159 17.6851,14.9825 16,16.5C 15.5172,15.552 15.3505,14.552 15.5,13.5C 13.1667,13.5 10.8333,13.5 8.5,13.5C 8.5,12.1667 8.5,10.8333 8.5,9.5C 10.8333,9.5 13.1667,9.5 15.5,9.5C 15.5,8.5 15.5,7.5 15.5,6.5 Z"/></g>
</svg>
