<?xml version="1.0" encoding="UTF-8"?>
<!DOCTYPE svg PUBLIC "-//W3C//DTD SVG 1.1//EN" "http://www.w3.org/Graphics/SVG/1.1/DTD/svg11.dtd">
<svg xmlns="http://www.w3.org/2000/svg" version="1.1" width="62px" height="47px" style="shape-rendering:geometricPrecision; text-rendering:geometricPrecision; image-rendering:optimizeQuality; fill-rule:evenodd; clip-rule:evenodd" xmlns:xlink="http://www.w3.org/1999/xlink">
<g><path style="opacity:1" fill="#d2afa9" d="M -0.5,-0.5 C 20.1667,-0.5 40.8333,-0.5 61.5,-0.5C 61.5,15.1667 61.5,30.8333 61.5,46.5C 40.8333,46.5 20.1667,46.5 -0.5,46.5C -0.5,30.8333 -0.5,15.1667 -0.5,-0.5 Z"/></g>
<g><path style="opacity:1" fill="#f4dbd7" d="M 34.5,10.5 C 35.7498,10.5774 36.5831,11.244 37,12.5C 37.6015,15.2205 37.4349,17.8872 36.5,20.5C 31.4987,24.6897 26.8321,24.3564 22.5,19.5C 21.1715,11.3388 24.5048,7.50543 32.5,8C 33.3805,8.7083 34.0472,9.54163 34.5,10.5 Z"/></g>
<g><path style="opacity:1" fill="#d0b0ac" d="M 34.5,10.5 C 37.1991,18.2879 34.5325,21.7879 26.5,21C 22.5,17.3333 22.5,13.6667 26.5,10C 29.2205,9.39845 31.8872,9.56512 34.5,10.5 Z"/></g>
<g><path style="opacity:1" fill="#d0b5b1" d="M 22.5,19.5 C 26.8321,24.3564 31.4987,24.6897 36.5,20.5C 37.2328,22.2503 37.5662,23.917 37.5,25.5C 31.7978,24.0694 26.1311,24.2361 20.5,26C 19.1772,26.8159 18.5106,27.9826 18.5,29.5C 17.8333,30.1667 17.1667,30.8333 16.5,31.5C 15.2121,29.9652 15.2121,28.2985 16.5,26.5C 19.3134,24.7 21.3134,22.3666 22.5,19.5 Z"/></g>
<g><path style="opacity:1" fill="#f2d9d4" d="M 37.5,25.5 C 40.1667,26.1667 41.8333,27.8333 42.5,30.5C 41.8333,30.5 41.5,30.8333 41.5,31.5C 40.8141,30.1516 39.8141,28.985 38.5,28C 32.8333,27.3333 27.1667,27.3333 21.5,28C 20.3094,28.6979 19.3094,29.5313 18.5,30.5C 18.5,30.1667 18.5,29.8333 18.5,29.5C 18.5106,27.9826 19.1772,26.8159 20.5,26C 26.1311,24.2361 31.7978,24.0694 37.5,25.5 Z"/></g>
<g><path style="opacity:1" fill="#cfb0ab" d="M 41.5,31.5 C 41.5,32.5 41.5,33.5 41.5,34.5C 33.8333,34.5 26.1667,34.5 18.5,34.5C 18.5,33.1667 18.5,31.8333 18.5,30.5C 19.3094,29.5313 20.3094,28.6979 21.5,28C 27.1667,27.3333 32.8333,27.3333 38.5,28C 39.8141,28.985 40.8141,30.1516 41.5,31.5 Z"/></g>
<g><path style="opacity:1" fill="#f7e1db" d="M 18.5,29.5 C 18.5,29.8333 18.5,30.1667 18.5,30.5C 18.5,31.8333 18.5,33.1667 18.5,34.5C 26.1667,34.5 33.8333,34.5 41.5,34.5C 41.5,33.5 41.5,32.5 41.5,31.5C 41.5,30.8333 41.8333,30.5 42.5,30.5C 42.5,31.8333 42.5,33.1667 42.5,34.5C 42.3893,35.1174 42.056,35.6174 41.5,36C 33.5,36.6667 25.5,36.6667 17.5,36C 16.6634,34.9887 16.33,33.8221 16.5,32.5C 16.5,32.1667 16.5,31.8333 16.5,31.5C 17.1667,30.8333 17.8333,30.1667 18.5,29.5 Z"/></g>
<g><path style="opacity:1" fill="#d1b7b1" d="M 16.5,32.5 C 16.33,33.8221 16.6634,34.9887 17.5,36C 25.5,36.6667 33.5,36.6667 41.5,36C 42.056,35.6174 42.3893,35.1174 42.5,34.5C 46.2674,35.2333 46.4341,36.5666 43,38.5C 33.9172,37.5155 24.7506,37.1822 15.5,37.5C 15.2155,35.5853 15.5489,33.9187 16.5,32.5 Z"/></g>
</svg>
